<svg width="30" height="25" viewBox="0 0 30 25" fill="none" xmlns="http://www.w3.org/2000/svg">
<path d="M29 24V4.06667C29 4.06667 27.4444 1 22 1C16.5556 1 15 5.6 15 5.6C15 5.6 13.4444 1 8 1C2.55556 1 1 4.06667 1 4.06667V24C1 24 2.55556 20.9333 8 20.9333C13.4444 20.9333 15 24 15 24C15 24 16.5556 20.9333 22 20.9333C27.4444 20.9333 29 24 29 24Z" fill="black"/>
<path d="M29 4.06667H30C30 3.90947 29.9629 3.75448 29.8918 3.61429L29 4.06667ZM29 24L28.1082 24.4524C28.3175 24.865 28.7826 25.0802 29.2326 24.9726C29.6826 24.865 30 24.4627 30 24H29ZM1 4.06667L0.108173 3.61429C0.03706 3.75448 0 3.90947 0 4.06667H1ZM1 24H0C0 24.4627 0.317424 24.865 0.767435 24.9726C1.21745 25.0802 1.68251 24.865 1.89183 24.4524L1 24ZM15 24L14.1082 24.4524C14.2786 24.7883 14.6233 25 15 25C15.3767 25 15.7214 24.7883 15.8918 24.4524L15 24ZM15 5.6L14.0527 5.92034C14.1901 6.32658 14.5712 6.6 15 6.6C15.4288 6.6 15.8099 6.32658 15.9473 5.92034L15 5.6ZM29 4.06667H28V24H29H30V4.06667H29ZM1 4.06667H0V24H1H2V4.06667H1ZM29 24C29.8918 23.5476 29.8915 23.547 29.8912 23.5464C29.8911 23.5461 29.8907 23.5455 29.8905 23.545C29.89 23.5441 29.8895 23.5431 29.889 23.5421C29.888 23.5401 29.8868 23.5379 29.8856 23.5355C29.8831 23.5307 29.8802 23.5251 29.8768 23.5189C29.8701 23.5063 29.8616 23.4909 29.8513 23.4727C29.8307 23.4364 29.8029 23.3892 29.7671 23.3327C29.6955 23.2199 29.592 23.0695 29.4515 22.8946C29.1705 22.5447 28.7412 22.0962 28.1243 21.6539C26.8789 20.7611 24.9236 19.9333 22 19.9333V20.9333V21.9333C24.5209 21.9333 26.0656 22.6389 26.959 23.2794C27.4116 23.6038 27.7114 23.9219 27.8922 24.147C27.9827 24.2597 28.0432 24.3489 28.078 24.4037C28.0953 24.4311 28.1062 24.4498 28.1111 24.4584C28.1135 24.4627 28.1145 24.4645 28.114 24.4635C28.1137 24.4631 28.1131 24.4619 28.1121 24.4601C28.1116 24.4591 28.1111 24.458 28.1104 24.4568C28.1101 24.4561 28.1097 24.4554 28.1094 24.4547C28.1092 24.4543 28.1089 24.4538 28.1088 24.4536C28.1085 24.453 28.1082 24.4524 29 24ZM22 20.9333V19.9333C19.0764 19.9333 17.1211 20.7611 15.8757 21.6539C15.2588 22.0962 14.8295 22.5447 14.5485 22.8946C14.408 23.0695 14.3045 23.2199 14.2329 23.3327C14.1971 23.3892 14.1693 23.4364 14.1487 23.4727C14.1384 23.4909 14.1299 23.5063 14.1232 23.5189C14.1198 23.5251 14.1169 23.5307 14.1144 23.5355C14.1132 23.5379 14.112 23.5401 14.111 23.5421C14.1105 23.5431 14.11 23.5441 14.1095 23.545C14.1093 23.5455 14.1089 23.5461 14.1088 23.5464C14.1085 23.547 14.1082 23.5476 15 24C15.8918 24.4524 15.8915 24.453 15.8912 24.4536C15.8911 24.4538 15.8908 24.4543 15.8906 24.4547C15.8903 24.4554 15.8899 24.4561 15.8896 24.4568C15.8889 24.458 15.8884 24.4591 15.8879 24.4601C15.8869 24.4619 15.8863 24.4631 15.886 24.4635C15.8855 24.4645 15.8865 24.4627 15.8889 24.4584C15.8938 24.4498 15.9047 24.4311 15.922 24.4037C15.9568 24.3489 16.0173 24.2597 16.1078 24.147C16.2886 23.9219 16.5884 23.6038 17.041 23.2794C17.9344 22.6389 19.4791 21.9333 22 21.9333V20.9333ZM15 24C15.8918 23.5476 15.8915 23.547 15.8912 23.5464C15.8911 23.5461 15.8907 23.5455 15.8905 23.545C15.89 23.5441 15.8895 23.5431 15.889 23.5421C15.888 23.5401 15.8868 23.5379 15.8856 23.5355C15.8831 23.5307 15.8802 23.5251 15.8768 23.5189C15.8701 23.5063 15.8616 23.4909 15.8513 23.4727C15.8307 23.4364 15.8029 23.3892 15.7671 23.3327C15.6955 23.2199 15.592 23.0695 15.4515 22.8946C15.1705 22.5447 14.7412 22.0962 14.1243 21.6539C12.8789 20.7611 10.9236 19.9333 8 19.9333V20.9333V21.9333C10.5209 21.9333 12.0656 22.6389 12.959 23.2794C13.4116 23.6038 13.7114 23.9219 13.8922 24.147C13.9827 24.2597 14.0432 24.3489 14.078 24.4037C14.0953 24.4311 14.1062 24.4498 14.1111 24.4584C14.1135 24.4627 14.1145 24.4645 14.114 24.4635C14.1137 24.4631 14.1131 24.4619 14.1121 24.4601C14.1116 24.4591 14.1111 24.458 14.1104 24.4568C14.1101 24.4561 14.1097 24.4554 14.1094 24.4547C14.1092 24.4543 14.1089 24.4538 14.1088 24.4536C14.1085 24.453 14.1082 24.4524 15 24ZM8 20.9333V19.9333C5.07644 19.9333 3.12114 20.7611 1.8757 21.6539C1.25883 22.0962 0.829487 22.5447 0.548452 22.8946C0.408007 23.0695 0.30451 23.2199 0.232932 23.3327C0.197128 23.3892 0.169254 23.4364 0.148686 23.4727C0.1384 23.4909 0.129934 23.5063 0.12321 23.5189C0.119847 23.5251 0.11692 23.5307 0.114417 23.5355C0.113166 23.5379 0.11202 23.5401 0.11098 23.5421C0.11046 23.5431 0.109966 23.5441 0.109498 23.545C0.109265 23.5455 0.108932 23.5461 0.108816 23.5464C0.108491 23.547 0.108173 23.5476 1 24C1.89183 24.4524 1.89152 24.453 1.89122 24.4536C1.89113 24.4538 1.89083 24.4543 1.89064 24.4547C1.89027 24.4554 1.88992 24.4561 1.88959 24.4568C1.88893 24.458 1.88836 24.4591 1.88788 24.4601C1.88691 24.4619 1.8863 24.4631 1.88605 24.4635C1.88554 24.4645 1.88647 24.4627 1.88891 24.4584C1.89379 24.4498 1.90465 24.4311 1.92202 24.4037C1.95677 24.3489 2.01734 24.2597 2.1078 24.147C2.28857 23.9219 2.58839 23.6038 3.04097 23.2794C3.93441 22.6389 5.47911 21.9333 8 21.9333V20.9333ZM29 4.06667C29.8918 3.61429 29.8915 3.61366 29.8912 3.61302C29.8911 3.6128 29.8907 3.61214 29.8905 3.61169C29.89 3.61077 29.8895 3.60981 29.889 3.60879C29.888 3.60677 29.8868 3.60456 29.8856 3.60216C29.8831 3.59736 29.8802 3.59181 29.8768 3.58553C29.8701 3.57299 29.8616 3.55753 29.8513 3.53937C29.8307 3.50306 29.8029 3.45587 29.7671 3.39941C29.6955 3.28652 29.592 3.13618 29.4515 2.96131C29.1705 2.61139 28.7412 2.16282 28.1243 1.7206C26.8789 0.827761 24.9236 0 22 0V1V2C24.5209 2 26.0656 2.70557 26.959 3.34607C27.4116 3.67051 27.7114 3.98861 27.8922 4.21369C27.9827 4.32632 28.0432 4.41557 28.078 4.47038C28.0953 4.49777 28.1062 4.51647 28.1111 4.52508C28.1135 4.52938 28.1145 4.53115 28.114 4.53021C28.1137 4.52973 28.1131 4.52858 28.1121 4.52673C28.1116 4.5258 28.1111 4.5247 28.1104 4.52342C28.1101 4.52278 28.1097 4.5221 28.1094 4.52137C28.1092 4.521 28.1089 4.52042 28.1088 4.52024C28.1085 4.51965 28.1082 4.51904 29 4.06667ZM22 1V0C18.9564 0 16.9528 1.29986 15.726 2.61901C15.1205 3.27015 14.7085 3.91992 14.4465 4.40923C14.3151 4.65468 14.2201 4.86226 14.1564 5.01299C14.1245 5.08845 14.1003 5.14992 14.0833 5.19507C14.0747 5.21766 14.068 5.23619 14.0629 5.25037C14.0604 5.25747 14.0583 5.26348 14.0566 5.26837C14.0557 5.27082 14.055 5.27298 14.0543 5.27487C14.054 5.27581 14.0537 5.27668 14.0534 5.27748C14.0533 5.27787 14.0531 5.27842 14.0531 5.27862C14.0529 5.27915 14.0527 5.27966 15 5.6C15.9473 5.92034 15.9471 5.92082 15.947 5.92127C15.9469 5.9214 15.9468 5.92184 15.9467 5.9221C15.9465 5.92262 15.9464 5.92307 15.9462 5.92346C15.946 5.92423 15.9458 5.92473 15.9457 5.92496C15.9456 5.92543 15.9458 5.92484 15.9463 5.92323C15.9475 5.92001 15.9501 5.91271 15.9543 5.90161C15.9627 5.87938 15.9773 5.84202 15.9986 5.79169C16.0412 5.69087 16.1102 5.53907 16.2097 5.35327C16.4095 4.98008 16.7267 4.47985 17.1906 3.98099C18.1028 3.00014 19.5992 2 22 2V1ZM15 5.6C15.9473 5.27966 15.9471 5.27915 15.9469 5.27862C15.9469 5.27842 15.9467 5.27787 15.9466 5.27748C15.9463 5.27668 15.946 5.27581 15.9457 5.27487C15.945 5.27298 15.9443 5.27082 15.9434 5.26837C15.9417 5.26348 15.9396 5.25747 15.9371 5.25037C15.932 5.23619 15.9253 5.21766 15.9167 5.19507C15.8997 5.14992 15.8755 5.08845 15.8436 5.01299C15.7799 4.86226 15.6849 4.65468 15.5535 4.40923C15.2915 3.91992 14.8795 3.27015 14.274 2.61901C13.0472 1.29986 11.0436 0 8 0V1V2C10.4008 2 11.8972 3.00014 12.8094 3.98099C13.2733 4.47985 13.5905 4.98008 13.7903 5.35327C13.8898 5.53907 13.9588 5.69087 14.0014 5.79169C14.0227 5.84202 14.0373 5.87938 14.0457 5.90161C14.0499 5.91271 14.0525 5.92001 14.0537 5.92323C14.0542 5.92484 14.0544 5.92543 14.0543 5.92496C14.0542 5.92473 14.054 5.92423 14.0538 5.92346C14.0536 5.92307 14.0535 5.92262 14.0533 5.9221C14.0532 5.92184 14.0531 5.9214 14.053 5.92127C14.0529 5.92082 14.0527 5.92034 15 5.6ZM8 1V0C5.07644 0 3.12114 0.827761 1.8757 1.7206C1.25883 2.16282 0.829487 2.61139 0.548452 2.96131C0.408007 3.13618 0.30451 3.28652 0.232932 3.39941C0.197128 3.45587 0.169254 3.50306 0.148687 3.53937C0.1384 3.55753 0.129934 3.57299 0.12321 3.58553C0.119847 3.59181 0.11692 3.59736 0.114417 3.60216C0.113166 3.60456 0.11202 3.60677 0.11098 3.60879C0.11046 3.60981 0.109966 3.61077 0.109498 3.61169C0.109265 3.61214 0.108932 3.6128 0.108816 3.61302C0.108491 3.61366 0.108173 3.61429 1 4.06667C1.89183 4.51904 1.89152 4.51965 1.89122 4.52024C1.89113 4.52042 1.89083 4.521 1.89064 4.52137C1.89027 4.5221 1.88992 4.52278 1.88959 4.52342C1.88893 4.5247 1.88836 4.5258 1.88788 4.52673C1.88691 4.52858 1.8863 4.52973 1.88605 4.53021C1.88554 4.53115 1.88647 4.52938 1.88891 4.52508C1.89379 4.51647 1.90465 4.49777 1.92202 4.47038C1.95677 4.41557 2.01734 4.32632 2.1078 4.21369C2.28857 3.98861 2.58839 3.67051 3.04097 3.34607C3.93441 2.70557 5.47911 2 8 2V1Z" fill="black"/>
<path d="M7.558 16V6.4H9.382C10.102 6.4 10.626 6.55 10.954 6.85C11.286 7.15 11.454 7.648 11.458 8.344C11.462 8.6 11.464 8.83 11.464 9.034C11.464 9.234 11.46 9.43 11.452 9.622C11.432 10.006 11.352 10.31 11.212 10.534C11.072 10.758 10.852 10.922 10.552 11.026V11.278C10.86 11.382 11.086 11.548 11.23 11.776C11.374 12 11.452 12.308 11.464 12.7C11.472 12.944 11.476 13.17 11.476 13.378C11.476 13.582 11.472 13.808 11.464 14.056C11.436 14.748 11.262 15.246 10.942 15.55C10.622 15.85 10.102 16 9.382 16H7.558ZM8.854 14.848H9.382C9.642 14.848 9.836 14.782 9.964 14.65C10.096 14.514 10.164 14.31 10.168 14.038C10.172 13.814 10.174 13.602 10.174 13.402C10.174 13.198 10.172 12.984 10.168 12.76C10.164 12.384 10.098 12.116 9.97 11.956C9.846 11.796 9.642 11.716 9.358 11.716H8.854V14.848ZM8.854 10.564H9.376C9.636 10.564 9.83 10.482 9.958 10.318C10.09 10.154 10.158 9.912 10.162 9.592C10.17 9.36 10.174 9.14 10.174 8.932C10.174 8.724 10.17 8.506 10.162 8.278C10.158 8.034 10.09 7.852 9.958 7.732C9.83 7.612 9.638 7.552 9.382 7.552H8.854V10.564Z" fill="#FFC567"/>
<path d="M19.46 16.102C18.744 16.102 18.232 15.948 17.924 15.64C17.616 15.328 17.448 14.816 17.42 14.104C17.416 13.916 17.412 13.734 17.408 13.558C17.408 13.378 17.41 13.198 17.414 13.018C17.422 12.838 17.434 12.654 17.45 12.466H18.674C18.658 12.786 18.648 13.106 18.644 13.426C18.644 13.746 18.654 14.048 18.674 14.332C18.69 14.568 18.76 14.744 18.884 14.86C19.008 14.972 19.198 15.028 19.454 15.028C19.706 15.028 19.888 14.972 20 14.86C20.112 14.744 20.18 14.568 20.204 14.332C20.216 14.152 20.224 13.984 20.228 13.828C20.232 13.672 20.232 13.514 20.228 13.354C20.224 13.194 20.216 13.018 20.204 12.826C20.188 12.59 20.14 12.388 20.06 12.22C19.98 12.052 19.834 11.94 19.622 11.884L18.818 11.68C18.458 11.588 18.176 11.454 17.972 11.278C17.768 11.098 17.622 10.87 17.534 10.594C17.446 10.318 17.396 9.988 17.384 9.604C17.38 9.388 17.378 9.168 17.378 8.944C17.382 8.72 17.386 8.498 17.39 8.278C17.406 7.806 17.482 7.426 17.618 7.138C17.758 6.846 17.976 6.634 18.272 6.502C18.572 6.366 18.966 6.298 19.454 6.298C20.146 6.298 20.646 6.452 20.954 6.76C21.266 7.068 21.436 7.576 21.464 8.284C21.472 8.48 21.474 8.722 21.47 9.01C21.466 9.294 21.458 9.578 21.446 9.862H20.198C20.21 9.562 20.216 9.262 20.216 8.962C20.22 8.658 20.216 8.356 20.204 8.056C20.2 7.824 20.134 7.652 20.006 7.54C19.878 7.424 19.692 7.366 19.448 7.366C19.192 7.366 19.006 7.424 18.89 7.54C18.774 7.652 18.706 7.824 18.686 8.056C18.666 8.312 18.656 8.57 18.656 8.83C18.66 9.09 18.67 9.348 18.686 9.604C18.702 9.86 18.752 10.066 18.836 10.222C18.92 10.378 19.072 10.484 19.292 10.54L20.018 10.714C20.398 10.802 20.694 10.94 20.906 11.128C21.118 11.312 21.268 11.546 21.356 11.83C21.444 12.11 21.494 12.442 21.506 12.826C21.514 12.994 21.518 13.146 21.518 13.282C21.518 13.418 21.516 13.552 21.512 13.684C21.508 13.812 21.504 13.952 21.5 14.104C21.472 14.816 21.302 15.328 20.99 15.64C20.682 15.948 20.172 16.102 19.46 16.102Z" fill="#FFC567"/>
</svg>
