<svg width="57" height="44" viewBox="0 0 57 44" fill="none" xmlns="http://www.w3.org/2000/svg">
<path d="M0.736 41V28.2H3.168C4.128 28.2 4.82667 28.4027 5.264 28.808C5.712 29.2133 5.94133 29.8747 5.952 30.792C5.952 31.1333 5.952 31.4427 5.952 31.72C5.952 31.9867 5.94667 32.248 5.936 32.504C5.904 33.016 5.792 33.4213 5.6 33.72C5.41867 34.0187 5.13067 34.2373 4.736 34.376V34.712C5.14133 34.84 5.44 35.0587 5.632 35.368C5.824 35.6667 5.93067 36.0773 5.952 36.6C5.97333 37.1973 5.97333 37.8 5.952 38.408C5.90933 39.3253 5.67467 39.9867 5.248 40.392C4.832 40.7973 4.144 41 3.184 41H0.736ZM2.48 33.752H3.168C3.86133 33.752 4.21333 33.32 4.224 32.456C4.23467 31.8693 4.23467 31.288 4.224 30.712C4.21333 30.0613 3.86133 29.736 3.168 29.736H2.48V33.752ZM2.48 39.464H3.184C3.86667 39.464 4.21333 39.1067 4.224 38.392C4.23467 37.816 4.23467 37.2453 4.224 36.68C4.21333 36.1787 4.12267 35.8213 3.952 35.608C3.792 35.3947 3.52533 35.288 3.152 35.288H2.48V39.464ZM9.81575 41.128C8.85575 41.128 8.17842 40.9253 7.78375 40.52C7.38908 40.1147 7.17042 39.4373 7.12775 38.488C7.10642 38.0827 7.09042 37.6027 7.07975 37.048C7.07975 36.4933 7.07975 35.9387 7.07975 35.384C7.09042 34.8187 7.10642 34.3227 7.12775 33.896C7.17042 32.9573 7.38375 32.2853 7.76775 31.88C8.16242 31.4747 8.84508 31.272 9.81575 31.272C10.7864 31.272 11.4584 31.48 11.8318 31.896C12.2158 32.3013 12.4344 32.968 12.4878 33.896C12.4984 34.312 12.5038 34.7973 12.5038 35.352C12.5144 35.9067 12.5198 36.4613 12.5198 37.016C12.5198 37.5707 12.5091 38.0613 12.4878 38.488C12.4344 39.4267 12.2158 40.104 11.8318 40.52C11.4584 40.9253 10.7864 41.128 9.81575 41.128ZM9.81575 39.816C10.1464 39.816 10.3811 39.7467 10.5198 39.608C10.6691 39.4587 10.7491 39.224 10.7598 38.904C10.7918 37.9653 10.8078 37.064 10.8078 36.2C10.8078 35.3253 10.7918 34.424 10.7598 33.496C10.7491 33.176 10.6691 32.9467 10.5198 32.808C10.3811 32.6587 10.1464 32.584 9.81575 32.584C9.48508 32.584 9.24508 32.6587 9.09575 32.808C8.94642 32.9467 8.86642 33.176 8.85575 33.496C8.82375 34.424 8.80775 35.3253 8.80775 36.2C8.80775 37.0747 8.82375 37.976 8.85575 38.904C8.86642 39.224 8.94642 39.4587 9.09575 39.608C9.24508 39.7467 9.48508 39.816 9.81575 39.816ZM16.5658 41.128C15.6058 41.128 14.9284 40.9253 14.5338 40.52C14.1391 40.1147 13.9204 39.4373 13.8778 38.488C13.8564 38.0827 13.8404 37.6027 13.8298 37.048C13.8298 36.4933 13.8298 35.9387 13.8298 35.384C13.8404 34.8187 13.8564 34.3227 13.8778 33.896C13.9204 32.9573 14.1338 32.2853 14.5178 31.88C14.9124 31.4747 15.5951 31.272 16.5658 31.272C17.5364 31.272 18.2084 31.48 18.5818 31.896C18.9658 32.3013 19.1844 32.968 19.2378 33.896C19.2484 34.312 19.2538 34.7973 19.2538 35.352C19.2644 35.9067 19.2698 36.4613 19.2698 37.016C19.2698 37.5707 19.2591 38.0613 19.2378 38.488C19.1844 39.4267 18.9658 40.104 18.5818 40.52C18.2084 40.9253 17.5364 41.128 16.5658 41.128ZM16.5658 39.816C16.8964 39.816 17.1311 39.7467 17.2698 39.608C17.4191 39.4587 17.4991 39.224 17.5098 38.904C17.5418 37.9653 17.5578 37.064 17.5578 36.2C17.5578 35.3253 17.5418 34.424 17.5098 33.496C17.4991 33.176 17.4191 32.9467 17.2698 32.808C17.1311 32.6587 16.8964 32.584 16.5658 32.584C16.2351 32.584 15.9951 32.6587 15.8458 32.808C15.6964 32.9467 15.6164 33.176 15.6058 33.496C15.5738 34.424 15.5578 35.3253 15.5578 36.2C15.5578 37.0747 15.5738 37.976 15.6058 38.904C15.6164 39.224 15.6964 39.4587 15.8458 39.608C15.9951 39.7467 16.2351 39.816 16.5658 39.816ZM20.5329 41V28.2H22.1649V31.864L21.9729 35.384H22.2609L22.9329 33.48L23.8289 31.4H25.6209L23.8289 35.192L25.9729 41H24.1969L22.7409 36.952L22.1969 37.96V41H20.5329ZM29.9731 41.128C29.0131 41.128 28.3305 40.9253 27.9251 40.52C27.5198 40.104 27.2958 39.4213 27.2531 38.472C27.2425 38.0987 27.2371 37.736 27.2371 37.384C27.2478 37.032 27.2691 36.664 27.3011 36.28H28.9331C28.9118 36.7173 28.8958 37.1493 28.8851 37.576C28.8851 38.0027 28.9011 38.4027 28.9331 38.776C28.9545 39.096 29.0451 39.3307 29.2051 39.48C29.3758 39.6293 29.6318 39.704 29.9731 39.704C30.3038 39.704 30.5438 39.6293 30.6931 39.48C30.8531 39.3307 30.9438 39.096 30.9651 38.776C30.9971 38.4133 31.0078 38.088 30.9971 37.8C30.9971 37.5013 30.9865 37.1547 30.9651 36.76C30.9438 36.4507 30.8798 36.184 30.7731 35.96C30.6665 35.736 30.4745 35.5867 30.1971 35.512L29.1251 35.24C28.3998 35.0587 27.9038 34.744 27.6371 34.296C27.3705 33.848 27.2265 33.24 27.2051 32.472C27.2051 32.184 27.2051 31.8907 27.2051 31.592C27.2051 31.2933 27.2105 31 27.2211 30.712C27.2531 29.7627 27.4718 29.0853 27.8771 28.68C28.2931 28.2747 28.9918 28.072 29.9731 28.072C30.8905 28.072 31.5571 28.2747 31.9731 28.68C32.3891 29.0853 32.6131 29.7627 32.6451 30.712C32.6558 30.9787 32.6558 31.304 32.6451 31.688C32.6451 32.0613 32.6398 32.44 32.6291 32.824H30.9651C30.9758 32.4187 30.9811 32.0187 30.9811 31.624C30.9918 31.2187 30.9865 30.8133 30.9651 30.408C30.9438 29.8 30.6078 29.496 29.9571 29.496C29.6265 29.496 29.3811 29.5707 29.2211 29.72C29.0611 29.8693 28.9705 30.0987 28.9491 30.408C28.9171 30.7493 28.9011 31.096 28.9011 31.448C28.9118 31.7893 28.9278 32.1307 28.9491 32.472C28.9705 32.824 29.0345 33.1013 29.1411 33.304C29.2585 33.5067 29.4665 33.6453 29.7651 33.72L30.7251 33.944C31.4825 34.1253 31.9945 34.4507 32.2611 34.92C32.5278 35.3787 32.6771 35.992 32.7091 36.76C32.7198 37.1013 32.7198 37.3947 32.7091 37.64C32.7091 37.8853 32.7038 38.1627 32.6931 38.472C32.6611 39.4213 32.4371 40.104 32.0211 40.52C31.6051 40.9253 30.9225 41.128 29.9731 41.128ZM37.3791 41.128C36.3871 41.128 35.6885 40.9467 35.2831 40.584C34.8778 40.2107 34.6751 39.5973 34.6751 38.744V32.728H33.8911V31.4H34.6911V28.68H36.4671L36.4351 31.4H37.9551V32.728H36.4031V38.92C36.4031 39.2613 36.4618 39.5013 36.5791 39.64C36.7071 39.768 36.9738 39.832 37.3791 39.832C37.5178 39.832 37.6405 39.8267 37.7471 39.816C37.8538 39.8053 37.9765 39.8 38.1151 39.8V41.048C38.0085 41.08 37.8911 41.1013 37.7631 41.112C37.6351 41.1227 37.5071 41.128 37.3791 41.128ZM41.7533 41.128C40.7933 41.128 40.1159 40.9253 39.7213 40.52C39.3266 40.1147 39.1079 39.4373 39.0653 38.488C39.0439 38.0827 39.0279 37.6027 39.0173 37.048C39.0173 36.4933 39.0173 35.9387 39.0173 35.384C39.0279 34.8187 39.0439 34.3227 39.0653 33.896C39.1079 32.9573 39.3213 32.2853 39.7053 31.88C40.0999 31.4747 40.7826 31.272 41.7533 31.272C42.7239 31.272 43.3959 31.48 43.7693 31.896C44.1533 32.3013 44.3719 32.968 44.4253 33.896C44.4359 34.312 44.4413 34.7973 44.4413 35.352C44.4519 35.9067 44.4573 36.4613 44.4573 37.016C44.4573 37.5707 44.4466 38.0613 44.4253 38.488C44.3719 39.4267 44.1533 40.104 43.7693 40.52C43.3959 40.9253 42.7239 41.128 41.7533 41.128ZM41.7533 39.816C42.0839 39.816 42.3186 39.7467 42.4573 39.608C42.6066 39.4587 42.6866 39.224 42.6973 38.904C42.7293 37.9653 42.7453 37.064 42.7453 36.2C42.7453 35.3253 42.7293 34.424 42.6973 33.496C42.6866 33.176 42.6066 32.9467 42.4573 32.808C42.3186 32.6587 42.0839 32.584 41.7533 32.584C41.4226 32.584 41.1826 32.6587 41.0333 32.808C40.8839 32.9467 40.8039 33.176 40.7933 33.496C40.7613 34.424 40.7453 35.3253 40.7453 36.2C40.7453 37.0747 40.7613 37.976 40.7933 38.904C40.8039 39.224 40.8839 39.4587 41.0333 39.608C41.1826 39.7467 41.4226 39.816 41.7533 39.816ZM45.7829 41V31.4H47.5269V32.456H47.8309C47.9055 32.0507 48.0495 31.768 48.2629 31.608C48.4762 31.4373 48.7535 31.352 49.0949 31.352C49.2015 31.352 49.3082 31.3573 49.4149 31.368C49.5322 31.368 49.6229 31.3733 49.6869 31.384V32.728H49.1109C48.5775 32.728 48.1935 32.8187 47.9589 33C47.7349 33.1707 47.5909 33.4267 47.5269 33.768V41H45.7829ZM53.8189 37.496H55.4989C55.5095 37.6453 55.5149 37.8427 55.5149 38.088C55.5255 38.3333 55.5255 38.552 55.5149 38.744C55.4829 39.5973 55.2695 40.2107 54.8749 40.584C54.4909 40.9467 53.8562 41.128 52.9709 41.128C52.0642 41.128 51.4029 40.9467 50.9869 40.584C50.5815 40.2107 50.3575 39.5973 50.3149 38.744C50.3042 38.4347 50.2935 38.0613 50.2829 37.624C50.2829 37.176 50.2829 36.712 50.2829 36.232C50.2829 35.752 50.2829 35.288 50.2829 34.84C50.2935 34.392 50.3042 34.008 50.3149 33.688C50.3682 32.824 50.5975 32.2053 51.0029 31.832C51.4189 31.4587 52.0695 31.272 52.9549 31.272C53.8295 31.272 54.4642 31.4533 54.8589 31.816C55.2642 32.1787 55.4829 32.7813 55.5149 33.624C55.5255 33.7627 55.5309 33.9867 55.5309 34.296C55.5415 34.6053 55.5415 34.9573 55.5309 35.352C55.5309 35.736 55.5202 36.12 55.4989 36.504H52.0269C52.0269 36.8987 52.0269 37.2933 52.0269 37.688C52.0375 38.0827 52.0482 38.4933 52.0589 38.92C52.0589 39.2507 52.1282 39.4853 52.2669 39.624C52.4162 39.752 52.6509 39.816 52.9709 39.816C53.2589 39.816 53.4669 39.752 53.5949 39.624C53.7335 39.4853 53.8082 39.2507 53.8189 38.92C53.8402 38.5787 53.8402 38.104 53.8189 37.496ZM52.9549 32.584C52.6349 32.584 52.4055 32.6533 52.2669 32.792C52.1282 32.92 52.0589 33.1333 52.0589 33.432C52.0482 33.7733 52.0375 34.0933 52.0269 34.392C52.0269 34.68 52.0269 34.9733 52.0269 35.272H53.8349C53.8455 34.8453 53.8455 34.4667 53.8349 34.136C53.8349 33.8053 53.8295 33.5707 53.8189 33.432C53.8082 33.1333 53.7335 32.92 53.5949 32.792C53.4669 32.6533 53.2535 32.584 52.9549 32.584Z" fill="#FFC567"/>
<path d="M42 24V4.06667C42 4.06667 40.4444 1 35 1C29.5556 1 28 5.6 28 5.6C28 5.6 26.4444 1 21 1C15.5556 1 14 4.06667 14 4.06667V24C14 24 15.5556 20.9333 21 20.9333C26.4444 20.9333 28 24 28 24C28 24 29.5556 20.9333 35 20.9333C40.4444 20.9333 42 24 42 24Z" fill="#FFC567"/>
<path d="M42 4.06667H43C43 3.90947 42.9629 3.75448 42.8918 3.61429L42 4.06667ZM42 24L41.1082 24.4524C41.3175 24.865 41.7826 25.0802 42.2326 24.9726C42.6826 24.865 43 24.4627 43 24H42ZM14 4.06667L13.1082 3.61429C13.0371 3.75448 13 3.90947 13 4.06667H14ZM14 24H13C13 24.4627 13.3174 24.865 13.7674 24.9726C14.2174 25.0802 14.6825 24.865 14.8918 24.4524L14 24ZM28 24L27.1082 24.4524C27.2786 24.7883 27.6233 25 28 25C28.3767 25 28.7214 24.7883 28.8918 24.4524L28 24ZM28 5.6L27.0527 5.92034C27.1901 6.32658 27.5712 6.6 28 6.6C28.4288 6.6 28.8099 6.32658 28.9473 5.92034L28 5.6ZM42 4.06667H41V24H42H43V4.06667H42ZM14 4.06667H13V24H14H15V4.06667H14ZM42 24C42.8918 23.5476 42.8915 23.547 42.8912 23.5464C42.8911 23.5461 42.8907 23.5455 42.8905 23.545C42.89 23.5441 42.8895 23.5431 42.889 23.5421C42.888 23.5401 42.8868 23.5379 42.8856 23.5355C42.8831 23.5307 42.8802 23.5251 42.8768 23.5189C42.8701 23.5063 42.8616 23.4909 42.8513 23.4727C42.8307 23.4364 42.8029 23.3892 42.7671 23.3327C42.6955 23.2199 42.592 23.0695 42.4515 22.8946C42.1705 22.5447 41.7412 22.0962 41.1243 21.6539C39.8789 20.7611 37.9236 19.9333 35 19.9333V20.9333V21.9333C37.5209 21.9333 39.0656 22.6389 39.959 23.2794C40.4116 23.6038 40.7114 23.9219 40.8922 24.147C40.9827 24.2597 41.0432 24.3489 41.078 24.4037C41.0953 24.4311 41.1062 24.4498 41.1111 24.4584C41.1135 24.4627 41.1145 24.4645 41.114 24.4635C41.1137 24.4631 41.1131 24.4619 41.1121 24.4601C41.1116 24.4591 41.1111 24.458 41.1104 24.4568C41.1101 24.4561 41.1097 24.4554 41.1094 24.4547C41.1092 24.4543 41.1089 24.4538 41.1088 24.4536C41.1085 24.453 41.1082 24.4524 42 24ZM35 20.9333V19.9333C32.0764 19.9333 30.1211 20.7611 28.8757 21.6539C28.2588 22.0962 27.8295 22.5447 27.5485 22.8946C27.408 23.0695 27.3045 23.2199 27.2329 23.3327C27.1971 23.3892 27.1693 23.4364 27.1487 23.4727C27.1384 23.4909 27.1299 23.5063 27.1232 23.5189C27.1198 23.5251 27.1169 23.5307 27.1144 23.5355C27.1132 23.5379 27.112 23.5401 27.111 23.5421C27.1105 23.5431 27.11 23.5441 27.1095 23.545C27.1093 23.5455 27.1089 23.5461 27.1088 23.5464C27.1085 23.547 27.1082 23.5476 28 24C28.8918 24.4524 28.8915 24.453 28.8912 24.4536C28.8911 24.4538 28.8908 24.4543 28.8906 24.4547C28.8903 24.4554 28.8899 24.4561 28.8896 24.4568C28.8889 24.458 28.8884 24.4591 28.8879 24.4601C28.8869 24.4619 28.8863 24.4631 28.886 24.4635C28.8855 24.4645 28.8865 24.4627 28.8889 24.4584C28.8938 24.4498 28.9047 24.4311 28.922 24.4037C28.9568 24.3489 29.0173 24.2597 29.1078 24.147C29.2886 23.9219 29.5884 23.6038 30.041 23.2794C30.9344 22.6389 32.4791 21.9333 35 21.9333V20.9333ZM28 24C28.8918 23.5476 28.8915 23.547 28.8912 23.5464C28.8911 23.5461 28.8907 23.5455 28.8905 23.545C28.89 23.5441 28.8895 23.5431 28.889 23.5421C28.888 23.5401 28.8868 23.5379 28.8856 23.5355C28.8831 23.5307 28.8802 23.5251 28.8768 23.5189C28.8701 23.5063 28.8616 23.4909 28.8513 23.4727C28.8307 23.4364 28.8029 23.3892 28.7671 23.3327C28.6955 23.2199 28.592 23.0695 28.4515 22.8946C28.1705 22.5447 27.7412 22.0962 27.1243 21.6539C25.8789 20.7611 23.9236 19.9333 21 19.9333V20.9333V21.9333C23.5209 21.9333 25.0656 22.6389 25.959 23.2794C26.4116 23.6038 26.7114 23.9219 26.8922 24.147C26.9827 24.2597 27.0432 24.3489 27.078 24.4037C27.0953 24.4311 27.1062 24.4498 27.1111 24.4584C27.1135 24.4627 27.1145 24.4645 27.114 24.4635C27.1137 24.4631 27.1131 24.4619 27.1121 24.4601C27.1116 24.4591 27.1111 24.458 27.1104 24.4568C27.1101 24.4561 27.1097 24.4554 27.1094 24.4547C27.1092 24.4543 27.1089 24.4538 27.1088 24.4536C27.1085 24.453 27.1082 24.4524 28 24ZM21 20.9333V19.9333C18.0764 19.9333 16.1211 20.7611 14.8757 21.6539C14.2588 22.0962 13.8295 22.5447 13.5485 22.8946C13.408 23.0695 13.3045 23.2199 13.2329 23.3327C13.1971 23.3892 13.1693 23.4364 13.1487 23.4727C13.1384 23.4909 13.1299 23.5063 13.1232 23.5189C13.1198 23.5251 13.1169 23.5307 13.1144 23.5355C13.1132 23.5379 13.112 23.5401 13.111 23.5421C13.1105 23.5431 13.11 23.5441 13.1095 23.545C13.1093 23.5455 13.1089 23.5461 13.1088 23.5464C13.1085 23.547 13.1082 23.5476 14 24C14.8918 24.4524 14.8915 24.453 14.8912 24.4536C14.8911 24.4538 14.8908 24.4543 14.8906 24.4547C14.8903 24.4554 14.8899 24.4561 14.8896 24.4568C14.8889 24.458 14.8884 24.4591 14.8879 24.4601C14.8869 24.4619 14.8863 24.4631 14.886 24.4635C14.8855 24.4645 14.8865 24.4627 14.8889 24.4584C14.8938 24.4498 14.9047 24.4311 14.922 24.4037C14.9568 24.3489 15.0173 24.2597 15.1078 24.147C15.2886 23.9219 15.5884 23.6038 16.041 23.2794C16.9344 22.6389 18.4791 21.9333 21 21.9333V20.9333ZM42 4.06667C42.8918 3.61429 42.8915 3.61366 42.8912 3.61302C42.8911 3.6128 42.8907 3.61214 42.8905 3.61169C42.89 3.61077 42.8895 3.60981 42.889 3.60879C42.888 3.60677 42.8868 3.60456 42.8856 3.60216C42.8831 3.59736 42.8802 3.59181 42.8768 3.58553C42.8701 3.57299 42.8616 3.55753 42.8513 3.53937C42.8307 3.50306 42.8029 3.45587 42.7671 3.39941C42.6955 3.28652 42.592 3.13618 42.4515 2.96131C42.1705 2.61139 41.7412 2.16282 41.1243 1.7206C39.8789 0.827761 37.9236 0 35 0V1V2C37.5209 2 39.0656 2.70557 39.959 3.34607C40.4116 3.67051 40.7114 3.98861 40.8922 4.21369C40.9827 4.32632 41.0432 4.41557 41.078 4.47038C41.0953 4.49777 41.1062 4.51647 41.1111 4.52508C41.1135 4.52938 41.1145 4.53115 41.114 4.53021C41.1137 4.52973 41.1131 4.52858 41.1121 4.52673C41.1116 4.5258 41.1111 4.5247 41.1104 4.52342C41.1101 4.52278 41.1097 4.5221 41.1094 4.52137C41.1092 4.521 41.1089 4.52042 41.1088 4.52024C41.1085 4.51965 41.1082 4.51904 42 4.06667ZM35 1V0C31.9564 0 29.9528 1.29986 28.726 2.61901C28.1205 3.27015 27.7085 3.91992 27.4465 4.40923C27.3151 4.65468 27.2201 4.86226 27.1564 5.01299C27.1245 5.08845 27.1003 5.14992 27.0833 5.19507C27.0747 5.21766 27.068 5.23619 27.0629 5.25037C27.0604 5.25747 27.0583 5.26348 27.0566 5.26837C27.0557 5.27082 27.055 5.27298 27.0543 5.27487C27.054 5.27581 27.0537 5.27668 27.0534 5.27748C27.0533 5.27787 27.0531 5.27842 27.0531 5.27862C27.0529 5.27915 27.0527 5.27966 28 5.6C28.9473 5.92034 28.9471 5.92082 28.947 5.92127C28.9469 5.9214 28.9468 5.92184 28.9467 5.9221C28.9465 5.92262 28.9464 5.92307 28.9462 5.92346C28.946 5.92423 28.9458 5.92473 28.9457 5.92496C28.9456 5.92543 28.9458 5.92484 28.9463 5.92323C28.9475 5.92001 28.9501 5.91271 28.9543 5.90161C28.9627 5.87938 28.9773 5.84202 28.9986 5.79169C29.0412 5.69087 29.1102 5.53907 29.2097 5.35327C29.4095 4.98008 29.7267 4.47985 30.1906 3.98099C31.1028 3.00014 32.5992 2 35 2V1ZM28 5.6C28.9473 5.27966 28.9471 5.27915 28.9469 5.27862C28.9469 5.27842 28.9467 5.27787 28.9466 5.27748C28.9463 5.27668 28.946 5.27581 28.9457 5.27487C28.945 5.27298 28.9443 5.27082 28.9434 5.26837C28.9417 5.26348 28.9396 5.25747 28.9371 5.25037C28.932 5.23619 28.9253 5.21766 28.9167 5.19507C28.8997 5.14992 28.8755 5.08845 28.8436 5.01299C28.7799 4.86226 28.6849 4.65468 28.5535 4.40923C28.2915 3.91992 27.8795 3.27015 27.274 2.61901C26.0472 1.29986 24.0436 0 21 0V1V2C23.4008 2 24.8972 3.00014 25.8094 3.98099C26.2733 4.47985 26.5905 4.98008 26.7903 5.35327C26.8898 5.53907 26.9588 5.69087 27.0014 5.79169C27.0227 5.84202 27.0373 5.87938 27.0457 5.90161C27.0499 5.91271 27.0525 5.92001 27.0537 5.92323C27.0542 5.92484 27.0544 5.92543 27.0543 5.92496C27.0542 5.92473 27.054 5.92423 27.0538 5.92346C27.0536 5.92307 27.0535 5.92262 27.0533 5.9221C27.0532 5.92184 27.0531 5.9214 27.053 5.92127C27.0529 5.92082 27.0527 5.92034 28 5.6ZM21 1V0C18.0764 0 16.1211 0.827761 14.8757 1.7206C14.2588 2.16282 13.8295 2.61139 13.5485 2.96131C13.408 3.13618 13.3045 3.28652 13.2329 3.39941C13.1971 3.45587 13.1693 3.50306 13.1487 3.53937C13.1384 3.55753 13.1299 3.57299 13.1232 3.58553C13.1198 3.59181 13.1169 3.59736 13.1144 3.60216C13.1132 3.60456 13.112 3.60677 13.111 3.60879C13.1105 3.60981 13.11 3.61077 13.1095 3.61169C13.1093 3.61214 13.1089 3.6128 13.1088 3.61302C13.1085 3.61366 13.1082 3.61429 14 4.06667C14.8918 4.51904 14.8915 4.51965 14.8912 4.52024C14.8911 4.52042 14.8908 4.521 14.8906 4.52137C14.8903 4.5221 14.8899 4.52278 14.8896 4.52342C14.8889 4.5247 14.8884 4.5258 14.8879 4.52673C14.8869 4.52858 14.8863 4.52973 14.886 4.53021C14.8855 4.53115 14.8865 4.52938 14.8889 4.52508C14.8938 4.51647 14.9047 4.49777 14.922 4.47038C14.9568 4.41557 15.0173 4.32632 15.1078 4.21369C15.2886 3.98861 15.5884 3.67051 16.041 3.34607C16.9344 2.70557 18.4791 2 21 2V1Z" fill="#FFC567"/>
<path d="M20.558 16V6.4H22.382C23.102 6.4 23.626 6.55 23.954 6.85C24.286 7.15 24.454 7.648 24.458 8.344C24.462 8.6 24.464 8.83 24.464 9.034C24.464 9.234 24.46 9.43 24.452 9.622C24.432 10.006 24.352 10.31 24.212 10.534C24.072 10.758 23.852 10.922 23.552 11.026V11.278C23.86 11.382 24.086 11.548 24.23 11.776C24.374 12 24.452 12.308 24.464 12.7C24.472 12.944 24.476 13.17 24.476 13.378C24.476 13.582 24.472 13.808 24.464 14.056C24.436 14.748 24.262 15.246 23.942 15.55C23.622 15.85 23.102 16 22.382 16H20.558ZM21.854 14.848H22.382C22.642 14.848 22.836 14.782 22.964 14.65C23.096 14.514 23.164 14.31 23.168 14.038C23.172 13.814 23.174 13.602 23.174 13.402C23.174 13.198 23.172 12.984 23.168 12.76C23.164 12.384 23.098 12.116 22.97 11.956C22.846 11.796 22.642 11.716 22.358 11.716H21.854V14.848ZM21.854 10.564H22.376C22.636 10.564 22.83 10.482 22.958 10.318C23.09 10.154 23.158 9.912 23.162 9.592C23.17 9.36 23.174 9.14 23.174 8.932C23.174 8.724 23.17 8.506 23.162 8.278C23.158 8.034 23.09 7.852 22.958 7.732C22.83 7.612 22.638 7.552 22.382 7.552H21.854V10.564Z" fill="black"/>
<path d="M32.46 16.102C31.744 16.102 31.232 15.948 30.924 15.64C30.616 15.328 30.448 14.816 30.42 14.104C30.416 13.916 30.412 13.734 30.408 13.558C30.408 13.378 30.41 13.198 30.414 13.018C30.422 12.838 30.434 12.654 30.45 12.466H31.674C31.658 12.786 31.648 13.106 31.644 13.426C31.644 13.746 31.654 14.048 31.674 14.332C31.69 14.568 31.76 14.744 31.884 14.86C32.008 14.972 32.198 15.028 32.454 15.028C32.706 15.028 32.888 14.972 33 14.86C33.112 14.744 33.18 14.568 33.204 14.332C33.216 14.152 33.224 13.984 33.228 13.828C33.232 13.672 33.232 13.514 33.228 13.354C33.224 13.194 33.216 13.018 33.204 12.826C33.188 12.59 33.14 12.388 33.06 12.22C32.98 12.052 32.834 11.94 32.622 11.884L31.818 11.68C31.458 11.588 31.176 11.454 30.972 11.278C30.768 11.098 30.622 10.87 30.534 10.594C30.446 10.318 30.396 9.988 30.384 9.604C30.38 9.388 30.378 9.168 30.378 8.944C30.382 8.72 30.386 8.498 30.39 8.278C30.406 7.806 30.482 7.426 30.618 7.138C30.758 6.846 30.976 6.634 31.272 6.502C31.572 6.366 31.966 6.298 32.454 6.298C33.146 6.298 33.646 6.452 33.954 6.76C34.266 7.068 34.436 7.576 34.464 8.284C34.472 8.48 34.474 8.722 34.47 9.01C34.466 9.294 34.458 9.578 34.446 9.862H33.198C33.21 9.562 33.216 9.262 33.216 8.962C33.22 8.658 33.216 8.356 33.204 8.056C33.2 7.824 33.134 7.652 33.006 7.54C32.878 7.424 32.692 7.366 32.448 7.366C32.192 7.366 32.006 7.424 31.89 7.54C31.774 7.652 31.706 7.824 31.686 8.056C31.666 8.312 31.656 8.57 31.656 8.83C31.66 9.09 31.67 9.348 31.686 9.604C31.702 9.86 31.752 10.066 31.836 10.222C31.92 10.378 32.072 10.484 32.292 10.54L33.018 10.714C33.398 10.802 33.694 10.94 33.906 11.128C34.118 11.312 34.268 11.546 34.356 11.83C34.444 12.11 34.494 12.442 34.506 12.826C34.514 12.994 34.518 13.146 34.518 13.282C34.518 13.418 34.516 13.552 34.512 13.684C34.508 13.812 34.504 13.952 34.5 14.104C34.472 14.816 34.302 15.328 33.99 15.64C33.682 15.948 33.172 16.102 32.46 16.102Z" fill="black"/>
</svg>
